<?xml version="1.0" encoding="UTF-8"?><svg id="Layer_1" xmlns="http://www.w3.org/2000/svg" viewBox="0 0 335.54 119.12"><defs><style>.cls-1{letter-spacing:-.04em;}.cls-2{letter-spacing:0em;}.cls-3{fill:none;stroke:#0071b9;stroke-miterlimit:10;stroke-width:8px;}.cls-4{letter-spacing:-.03em;}.cls-5{fill:#0e1c36;font-family:Kanit-Regular, Kanit;font-size:60px;}</style></defs><text class="cls-5" transform="translate(90.08 50.06)"><tspan class="cls-4" x="0" y="0">B</tspan><tspan class="cls-2" x="35.76" y="0">yte </tspan><tspan x="0" y="48">Boutiqu</tspan><tspan class="cls-1" x="215.64" y="48">e</tspan></text><path class="cls-3" d="m2.34,13.47l38.26,27.67c2.55,1.81,2.55,5.6,0,7.4l-9.55,6.75c-2.55,1.8-2.55,5.58,0,7.37l9.58,6.77c2.54,1.79,2.54,5.56,0,7.35L2.34,104.47"/><path class="cls-3" d="m15.34,15.47l4.86-6.64c1.58-1.11,3.69-1.11,5.25.02l44.07,31.16c2.56,1.84,2.47,5.68-.18,7.39l-10.42,6.77c-2.74,1.78-2.74,5.8,0,7.59l10.37,6.74c2.67,1.73,2.76,5.6.18,7.46l-44.18,33.24c-1.47,1.06-3.45,1.07-4.93.02l-5.03-6.75"/><line class="cls-3" x1="12.34" y1="21.97" x2="12.34" y2="97.97"/></svg>